<?xml version="1.0" standalone="no"?>
<!DOCTYPE svg PUBLIC "-//W3C//DTD SVG 20010904//EN"
 "http://www.w3.org/TR/2001/REC-SVG-20010904/DTD/svg10.dtd">
<svg version="1.0" xmlns="http://www.w3.org/2000/svg"
 width="71.000000pt" height="71.000000pt" viewBox="0 0 71.000000 71.000000"
 preserveAspectRatio="xMidYMid meet">

<g transform="translate(0.000000,71.000000) scale(0.100000,-0.100000)"
fill="#000000" stroke="none">
<path d="M270 694 c-138 -37 -231 -136 -260 -278 -23 -110 20 -236 106 -316
149 -138 363 -128 501 23 63 69 87 135 87 232 0 97 -24 163 -86 231 -57 61
-116 96 -196 113 -66 14 -84 13 -152 -5z m217 -80 c57 -27 101 -72 135 -137
34 -64 32 -184 -4 -253 -75 -142 -248 -201 -390 -131 -128 63 -193 205 -154
338 52 181 244 266 413 183z"/>
<path d="M315 451 c-119 -49 -191 -83 -193 -93 -2 -10 14 -21 50 -35 52 -19
53 -22 66 -74 18 -70 24 -76 60 -50 17 11 34 21 39 21 4 0 30 -16 57 -35 30
-21 53 -32 59 -26 16 16 75 350 63 360 -7 5 -87 -22 -201 -68z m23 -79 c-61
-59 -74 -67 -80 -52 -3 9 -18 20 -32 24 -14 3 -26 10 -26 14 1 7 202 90 208
86 2 -1 -29 -34 -70 -72z m117 -42 c-12 -61 -24 -113 -27 -115 -3 -4 -89 52
-106 70 -6 6 137 155 148 155 4 0 -4 -50 -15 -110z m-160 -80 c3 -5 1 -10 -4
-10 -6 0 -11 5 -11 10 0 6 2 10 4 10 3 0 8 -4 11 -10z"/>
</g>
</svg>
