<?xml version="1.0" standalone="no"?>
<!DOCTYPE svg PUBLIC "-//W3C//DTD SVG 20010904//EN"
 "http://www.w3.org/TR/2001/REC-SVG-20010904/DTD/svg10.dtd">
<svg version="1.0" xmlns="http://www.w3.org/2000/svg"
 width="71.000000pt" height="71.000000pt" viewBox="0 0 71.000000 71.000000"
 preserveAspectRatio="xMidYMid meet">

<g transform="translate(0.000000,71.000000) scale(0.100000,-0.100000)"
fill="#000000" stroke="none">
<path d="M274 696 c-67 -16 -132 -55 -177 -105 -163 -181 -104 -455 121 -559
82 -38 193 -38 277 1 78 36 146 104 181 181 40 87 40 195 1 281 -50 107 -140
179 -255 204 -64 13 -82 13 -148 -3z m213 -82 c57 -27 101 -72 135 -137 32
-60 32 -184 0 -244 -35 -66 -78 -110 -140 -140 -155 -76 -340 0 -402 164 -25
68 -25 129 -1 193 65 171 245 243 408 164z"/>
<path d="M285 426 c19 -28 12 -90 -8 -83 -7 2 -23 24 -37 50 -23 43 -28 47
-62 47 -21 0 -38 -3 -38 -6 0 -18 70 -133 97 -161 50 -50 133 -58 133 -13 0
27 22 25 50 -5 18 -19 34 -25 67 -25 24 0 43 4 43 10 0 5 -13 25 -30 43 -16
19 -30 39 -30 43 0 5 14 29 30 54 16 25 30 48 30 53 0 4 -19 7 -42 7 -41 0
-45 -3 -73 -50 -16 -28 -32 -50 -37 -50 -4 0 -8 24 -10 53 l-3 52 -48 3 -48 3
16 -25z"/>
</g>
</svg>
