<?xml version="1.0" encoding="utf-8"?><svg xmlns="http://www.w3.org/2000/svg" xmlns:xlink="http://www.w3.org/1999/xlink"><symbol viewBox="0 0 34.075 34.075" id="arrow-left" xmlns="http://www.w3.org/2000/svg"><path d="M24.57 34.075a1.964 1.964 0 01-1.396-.577L8.11 18.432a1.972 1.972 0 010-2.79L23.174.578a1.973 1.973 0 112.791 2.79l-13.67 13.669 13.67 13.669a1.974 1.974 0 01-1.395 3.369z"/></symbol><symbol viewBox="0 0 71 71" id="telegram" xmlns="http://www.w3.org/2000/svg"><path d="M27 1.6C13.2 5.3 3.9 15.2 1 29.4-1.3 40.4 3 53 11.6 61c14.9 13.8 36.3 12.8 50.1-2.3 6.3-6.9 8.7-13.5 8.7-23.2S68 19.2 61.8 12.4C56.1 6.3 50.2 2.8 42.2 1.1 35.6-.3 33.8-.2 27 1.6zm21.7 8c5.7 2.7 10.1 7.2 13.5 13.7 3.4 6.4 3.2 18.4-.4 25.3-7.5 14.2-24.8 20.1-39 13.1C10 55.4 3.5 41.2 7.4 27.9 12.6 9.8 31.8 1.3 48.7 9.6z"/><path d="M31.5 25.9c-11.9 4.9-19.1 8.3-19.3 9.3-.2 1 1.4 2.1 5 3.5 5.2 1.9 5.3 2.2 6.6 7.4 1.8 7 2.4 7.6 6 5 1.7-1.1 3.4-2.1 3.9-2.1.4 0 3 1.6 5.7 3.5 3 2.1 5.3 3.2 5.9 2.6 1.6-1.6 7.5-35 6.3-36-.7-.5-8.7 2.2-20.1 6.8zm2.3 7.9c-6.1 5.9-7.4 6.7-8 5.2-.3-.9-1.8-2-3.2-2.4-1.4-.3-2.6-1-2.6-1.4.1-.7 20.2-9 20.8-8.6.2.1-2.9 3.4-7 7.2zM45.5 38c-1.2 6.1-2.4 11.3-2.7 11.5-.3.4-8.9-5.2-10.6-7C31.6 41.9 45.9 27 47 27c.4 0-.4 5-1.5 11zm-16 8c.3.5.1 1-.4 1-.6 0-1.1-.5-1.1-1 0-.6.2-1 .4-1 .3 0 .8.4 1.1 1z"/></symbol><symbol viewBox="0 0 71 71" id="vk" xmlns="http://www.w3.org/2000/svg"><path d="M27.4 1.4C20.7 3 14.2 6.9 9.7 11.9-6.6 30-.7 57.4 21.8 67.8c8.2 3.8 19.3 3.8 27.7-.1 7.8-3.6 14.6-10.4 18.1-18.1 4-8.7 4-19.5.1-28.1-5-10.7-14-17.9-25.5-20.4-6.4-1.3-8.2-1.3-14.8.3zm21.3 8.2c5.7 2.7 10.1 7.2 13.5 13.7 3.2 6 3.2 18.4 0 24.4-3.5 6.6-7.8 11-14 14-15.5 7.6-34 0-40.2-16.4-2.5-6.8-2.5-12.9-.1-19.3C14.4 8.9 32.4 1.7 48.7 9.6z"/><path d="M28.5 28.4c1.9 2.8 1.2 9-.8 8.3-.7-.2-2.3-2.4-3.7-5-2.3-4.3-2.8-4.7-6.2-4.7-2.1 0-3.8.3-3.8.6 0 1.8 7 13.3 9.7 16.1 5 5 13.3 5.8 13.3 1.3 0-2.7 2.2-2.5 5 .5 1.8 1.9 3.4 2.5 6.7 2.5 2.4 0 4.3-.4 4.3-1 0-.5-1.3-2.5-3-4.3-1.6-1.9-3-3.9-3-4.3 0-.5 1.4-2.9 3-5.4 1.6-2.5 3-4.8 3-5.3 0-.4-1.9-.7-4.2-.7-4.1 0-4.5.3-7.3 5-1.6 2.8-3.2 5-3.7 5-.4 0-.8-2.4-1-5.3l-.3-5.2-4.8-.3-4.8-.3 1.6 2.5z"/></symbol><symbol viewBox="0 0 24 24" id="wpp" xmlns="http://www.w3.org/2000/svg"><path xmlns="http://www.w3.org/2000/svg" d="M17.507 14.307l-.009.075c-2.199-1.096-2.429-1.242-2.713-.816-.197.295-.771.964-.944 1.162-.175.195-.349.21-.646.075-.3-.15-1.263-.465-2.403-1.485-.888-.795-1.484-1.77-1.66-2.07-.293-.506.32-.578.878-1.634.1-.21.049-.375-.025-.524-.075-.15-.672-1.62-.922-2.206-.24-.584-.487-.51-.672-.51-.576-.05-.997-.042-1.368.344-1.614 1.774-1.207 3.604.174 5.55 2.714 3.552 4.16 4.206 6.804 5.114.714.227 1.365.195 1.88.121.574-.091 1.767-.721 2.016-1.426.255-.705.255-1.29.18-1.425-.074-.135-.27-.21-.57-.345z" data-original="#000000"/><path xmlns="http://www.w3.org/2000/svg" d="M20.52 3.449C12.831-3.984.106 1.407.101 11.893c0 2.096.549 4.14 1.595 5.945L0 24l6.335-1.652c7.905 4.27 17.661-1.4 17.665-10.449 0-3.176-1.24-6.165-3.495-8.411zm1.482 8.417c-.006 7.633-8.385 12.4-15.012 8.504l-.36-.214-3.75.975 1.005-3.645-.239-.375c-4.124-6.565.614-15.145 8.426-15.145a9.865 9.865 0 017.021 2.91 9.788 9.788 0 012.909 6.99z" data-original="#000000"/></symbol></svg>